# xmcd
#
# Track frame offsets: 
#        150
#        12518
#        28274
#        47612
#        70341
#        80381
#
# Disc length: 1321 seconds
#
# Revision: 0
# Processed by: cddbd v1.5.2PL0 Copyright (c) Steve Scherf et al.
# Submitted via: ExactAudioCopyFreeDBPlugin 1.0
#
DISCID=48052706
DTITLE=Danielle Nicole - Danielle Nicole
DYEAR=2015
DGENRE=Blues
TTITLE0=You Only Need Me When You're Down (Radio Edit)
TTITLE1=Starvin' For Love
TTITLE2=Didn't Do You No Good (Radio Edit)
TTITLE3=Wandering Heart
TTITLE4=You Only Need Me When You're Down (Live from The Bridge 90.9)
TTITLE5=Don't Think Twice, It's Alright (Live from The Bridge 90.9)
EXTD=
EXTT0=
EXTT1=
EXTT2=
EXTT3=
EXTT4=
EXTT5=
PLAYORDER=
